<svg width="50" height="50" viewBox="0 0 50 50" fill="none" xmlns="http://www.w3.org/2000/svg">
<rect width="49.8571" height="50" rx="14" fill="#36789D"/>
<g clip-path="url(#clip0_2_5290)">
<path fill-rule="evenodd" clip-rule="evenodd" d="M35.4286 22C36.6221 22 37.7667 22.4741 38.6106 23.318C39.4545 24.1619 39.9286 25.3065 39.9286 26.5V35.5C39.9286 36.6935 39.4545 37.8381 38.6106 38.682C37.7667 39.5259 36.6221 40 35.4286 40H14.4286C13.2351 40 12.0905 39.5259 11.2466 38.682C10.4027 37.8381 9.92859 36.6935 9.92859 35.5V26.5C9.92859 25.3065 10.4027 24.1619 11.2466 23.318C12.0905 22.4741 13.2351 22 14.4286 22H35.4286ZM35.4286 34H14.4286C14.0612 34 13.7066 34.1349 13.432 34.3791C13.1575 34.6232 12.9821 34.9596 12.9391 35.3245L12.9286 35.5V37H36.9286V35.5C36.9285 35.1326 36.7937 34.778 36.5495 34.5034C36.3054 34.2289 35.969 34.0535 35.6041 34.0105L35.4286 34ZM33.9286 26.5C33.5308 26.5 33.1492 26.658 32.8679 26.9393C32.5866 27.2206 32.4286 27.6022 32.4286 28C32.4286 28.3978 32.5866 28.7794 32.8679 29.0607C33.1492 29.342 33.5308 29.5 33.9286 29.5C34.3264 29.5 34.7079 29.342 34.9893 29.0607C35.2706 28.7794 35.4286 28.3978 35.4286 28C35.4286 27.6022 35.2706 27.2206 34.9893 26.9393C34.7079 26.658 34.3264 26.5 33.9286 26.5Z" fill="#FAFAFA"/>
<path d="M16.4853 18.9567C15.7557 19.378 14.9279 19.5998 14.0854 19.5998C13.2428 19.5998 12.4151 19.378 11.6855 18.9567C10.9558 18.5354 10.3499 17.9295 9.92859 17.1998H14.0854V12.3998H9.92859C10.3499 11.6702 10.9558 11.0643 11.6855 10.643C12.4152 10.2218 13.2429 10 14.0854 10C14.9279 10 15.7556 10.2218 16.4853 10.643C17.215 11.0643 17.8209 11.6702 18.2422 12.3998H35.6854C36.3219 12.3998 36.9324 12.6526 37.3824 13.1027C37.8325 13.5528 38.0854 14.1633 38.0854 14.7998C38.0854 15.4363 37.8325 16.0468 37.3824 16.4968C36.9324 16.9469 36.3219 17.1998 35.6854 17.1998H18.2422C17.8209 17.9295 17.215 18.5354 16.4853 18.9567Z" fill="#FAFAFA"/>
</g>
<defs>
<clipPath id="clip0_2_5290">
<rect width="36" height="36" fill="white" transform="translate(6.92859 7)"/>
</clipPath>
</defs>
</svg>
