<svg width="36" height="36" viewBox="0 0 36 36" fill="none" xmlns="http://www.w3.org/2000/svg">
<g clip-path="url(#clip0_2_6379)">
<path fill-rule="evenodd" clip-rule="evenodd" d="M28.5 15C29.6935 15 30.8381 15.4741 31.682 16.318C32.5259 17.1619 33 18.3065 33 19.5V28.5C33 29.6935 32.5259 30.8381 31.682 31.682C30.8381 32.5259 29.6935 33 28.5 33H7.5C6.30653 33 5.16193 32.5259 4.31802 31.682C3.47411 30.8381 3 29.6935 3 28.5V19.5C3 18.3065 3.47411 17.1619 4.31802 16.318C5.16193 15.4741 6.30653 15 7.5 15H28.5ZM28.5 27H7.5C7.1326 27 6.77799 27.1349 6.50344 27.3791C6.22889 27.6232 6.05349 27.9596 6.0105 28.3245L6 28.5V30H30V28.5C30 28.1326 29.8651 27.778 29.6209 27.5034C29.3768 27.2289 29.0404 27.0535 28.6755 27.0105L28.5 27ZM27 19.5C26.6022 19.5 26.2206 19.658 25.9393 19.9393C25.658 20.2206 25.5 20.6022 25.5 21C25.5 21.3978 25.658 21.7794 25.9393 22.0607C26.2206 22.342 26.6022 22.5 27 22.5C27.3978 22.5 27.7794 22.342 28.0607 22.0607C28.342 21.7794 28.5 21.3978 28.5 21C28.5 20.6022 28.342 20.2206 28.0607 19.9393C27.7794 19.658 27.3978 19.5 27 19.5Z" fill="white"/>
<path d="M9.55673 11.9567C8.82706 12.378 7.99936 12.5998 7.1568 12.5998C6.31424 12.5998 5.48654 12.378 4.75687 11.9567C4.0272 11.5354 3.42128 10.9295 3 10.1998H7.1568V5.39979H3C3.4213 4.67015 4.02724 4.06427 4.75691 3.64302C5.48657 3.22177 6.31427 3 7.1568 3C7.99933 3 8.82703 3.22177 9.55669 3.64302C10.2864 4.06427 10.8923 4.67015 11.3136 5.39979H28.7568C29.3933 5.39979 30.0038 5.65265 30.4539 6.10273C30.9039 6.55282 31.1568 7.16327 31.1568 7.79979C31.1568 8.43631 30.9039 9.04676 30.4539 9.49685C30.0038 9.94693 29.3933 10.1998 28.7568 10.1998H11.3136C10.8923 10.9295 10.2864 11.5354 9.55673 11.9567Z" fill="white"/>
</g>
<defs>
<clipPath id="clip0_2_6379">
<rect width="36" height="36" fill="white"/>
</clipPath>
</defs>
</svg>
