<svg width="29" height="32" viewBox="0 0 29 32" fill="none" xmlns="http://www.w3.org/2000/svg">
<path d="M4.26342 9.84603C5.12759 9.84601 5.97653 9.61852 6.72492 9.18643C7.4733 8.75433 8.09476 8.13286 8.52685 7.38447H26.4175C27.0703 7.38447 27.6964 7.12513 28.1581 6.66349C28.6197 6.20186 28.879 5.57575 28.879 4.92291C28.879 4.27006 28.6197 3.64395 28.1581 3.18232C27.6964 2.72069 27.0703 2.46135 26.4175 2.46135H8.52685C8.09474 1.71299 7.47326 1.09157 6.72488 0.659511C5.97649 0.227457 5.12757 0 4.26342 0C3.39928 0 2.55035 0.227457 1.80197 0.659511C1.05359 1.09157 0.432111 1.71299 0 2.46135H4.26342V7.38447H0C0.432084 8.13286 1.05355 8.75433 1.80193 9.18643C2.55032 9.61852 3.39926 9.84601 4.26342 9.84603ZM2.16125 20.5637C1.93117 20.7943 1.80193 21.1068 1.80186 21.4326V30.7693C1.80186 31.0957 1.93153 31.4088 2.16235 31.6396C2.39317 31.8704 2.70622 32.0001 3.03264 32.0001H6.72499C7.05141 32.0001 7.36446 31.8704 7.59528 31.6396C7.82609 31.4088 7.95577 31.0957 7.95577 30.7693V29.5385H22.7251V30.7693C22.7251 31.0957 22.8548 31.4088 23.0856 31.6396C23.3164 31.8704 23.6295 32.0001 23.9559 32.0001H27.6483C27.9747 32.0001 28.2877 31.8704 28.5186 31.6396C28.7494 31.4088 28.879 31.0957 28.879 30.7693V21.4326C28.879 21.1068 28.7497 20.7943 28.5197 20.5637L26.4175 18.4615L23.0845 12.9058C22.975 12.7229 22.8198 12.5717 22.6343 12.4669C22.4488 12.362 22.2392 12.3071 22.0261 12.3076H8.65485C8.44215 12.3075 8.23306 12.3626 8.04799 12.4675C7.86292 12.5723 7.70817 12.7233 7.59884 12.9058L4.26342 18.4615L2.16125 20.5637ZM24.2858 19.6923H6.39514L9.34901 14.7692H21.3319L24.2858 19.6923ZM10.4173 24.192V25.1077C10.4173 25.3036 10.3395 25.4914 10.201 25.6299C10.0625 25.7684 9.87471 25.8462 9.67886 25.8462H5.00189C4.80604 25.8462 4.61821 25.7684 4.47972 25.6299C4.34123 25.4914 4.26342 25.3036 4.26342 25.1077V23.0548C4.26348 22.9455 4.28777 22.8376 4.33456 22.7389C4.38135 22.6401 4.44947 22.553 4.53401 22.4838C4.61854 22.4146 4.71738 22.365 4.82341 22.3385C4.92943 22.3121 5.04 22.3096 5.14712 22.3311L9.62717 23.2271C9.85002 23.272 10.0505 23.3926 10.1945 23.5685C10.3385 23.7444 10.4173 23.9647 10.4173 24.192ZM26.4175 23.3551V25.1077C26.4175 25.3036 26.3397 25.4914 26.2012 25.6299C26.0627 25.7684 25.8749 25.8462 25.679 25.8462H21.002C20.8062 25.8462 20.6184 25.7684 20.4799 25.6299C20.3414 25.4914 20.2636 25.3036 20.2636 25.1077V23.9902C20.2637 23.8196 20.3228 23.6543 20.4309 23.5224C20.5391 23.3904 20.6896 23.3 20.8568 23.2665L25.2384 22.3901C25.3813 22.3614 25.5288 22.3647 25.6703 22.3998C25.8117 22.435 25.9436 22.5011 26.0564 22.5934C26.1693 22.6857 26.2602 22.8019 26.3226 22.9337C26.385 23.0654 26.4174 23.2093 26.4175 23.3551Z" fill="white"/>
</svg>
