<svg width="24" height="25" viewBox="0 0 24 25" fill="none" xmlns="http://www.w3.org/2000/svg">
<path fill-rule="evenodd" clip-rule="evenodd" d="M18.2463 9.23821C18.5894 10.4041 18.75 11.9518 18.75 14C18.75 17.4314 18.297 19.4338 17.3246 20.6008C16.3894 21.723 14.8123 22.25 12 22.25C9.18773 22.25 7.61063 21.723 6.67543 20.6008C5.70295 19.4338 5.25 17.4314 5.25 14C5.25 11.275 5.5342 9.43587 6.1545 8.20328C6.61147 7.29525 7.27012 6.67931 8.25 6.28962V7C8.25 7.41421 8.58579 7.75 9 7.75H13.0421C12.7504 7.30257 12.5431 6.79503 12.443 6.25H9.75V5.27928V4.75H12.443C12.5431 4.20497 12.7504 3.69743 13.0421 3.25H9C8.58579 3.25 8.25 3.58579 8.25 4V4.7025C6.68466 5.18016 5.54608 6.07549 4.81461 7.52897C4.02855 9.09094 3.75 11.2287 3.75 14C3.75 17.451 4.1794 19.9486 5.5231 21.561C6.90408 23.2182 9.07697 23.75 12 23.75C14.923 23.75 17.0959 23.2182 18.4769 21.561C19.8206 19.9486 20.25 17.451 20.25 14C20.25 11.6651 20.0523 9.77997 19.5199 8.30998C19.161 8.69554 18.7291 9.01227 18.2463 9.23821ZM9 13.25C8.58579 13.25 8.25 13.5858 8.25 14C8.25 14.4142 8.58579 14.75 9 14.75H13C13.4142 14.75 13.75 14.4142 13.75 14C13.75 13.5858 13.4142 13.25 13 13.25H9ZM9 17.25C8.58579 17.25 8.25 17.5858 8.25 18C8.25 18.4142 8.58579 18.75 9 18.75H15C15.4142 18.75 15.75 18.4142 15.75 18C15.75 17.5858 15.4142 17.25 15 17.25H9Z" fill="#36789D"/>
<path d="M16.5 3.66667V5.5L17.4167 6.41667M20.625 5.5C20.625 7.77817 18.7782 9.625 16.5 9.625C14.2218 9.625 12.375 7.77817 12.375 5.5C12.375 3.22183 14.2218 1.375 16.5 1.375C18.7782 1.375 20.625 3.22183 20.625 5.5Z" stroke="#36789D" stroke-width="1.5" stroke-linecap="round" stroke-linejoin="round"/>
</svg>
