<svg width="27" height="30" viewBox="0 0 27 30" fill="none" xmlns="http://www.w3.org/2000/svg">
<path d="M9 30V26.25C6.35 25.325 4.1875 23.7065 2.5125 21.3945C0.8375 19.0825 0 16.451 0 13.5C0 11.625 0.3565 9.869 1.0695 8.232C1.7825 6.595 2.7445 5.17 3.9555 3.957C5.1685 2.744 6.5935 1.7815 8.2305 1.0695C9.8675 0.3575 11.6115 0.001 13.4625 0C15.3125 0 17.0625 0.3565 18.7125 1.0695C20.3625 1.7825 21.8 2.745 23.025 3.957C24.25 5.169 25.219 6.594 25.932 8.232C26.645 9.87 27.001 11.626 27 13.5C27 16.45 26.156 19.069 24.468 21.357C22.78 23.645 20.624 25.2635 18 26.2125V30H15V26.925C14.75 26.975 14.5 27 14.25 27H13.4625C13.2125 27 12.9685 26.994 12.7305 26.982C12.4925 26.97 12.249 26.951 12 26.925V30H9ZM7.5 10.575H19.5V7.575H7.5V10.575ZM12.375 22.575L16.875 18.075L15 16.2L16.875 14.325L14.625 12.075L10.125 16.575L12 18.45L10.125 20.325L12.375 22.575Z" fill="white"/>
</svg>
