<svg width="24" height="24" viewBox="0 0 24 24" fill="none" xmlns="http://www.w3.org/2000/svg">
<path d="M6.49996 6.99991C7.96131 5.53856 9.5935 4.4189 10.6975 3.74078C11.5021 3.24656 12.4978 3.24656 13.3024 3.74078C14.4064 4.4189 16.0386 5.53856 17.5 6.99991C20.6683 10.1683 20.5 11.9999 20.5 14.9999C20.5 16.4097 20.3895 17.5987 20.2725 18.4631C20.1493 19.3725 19.3561 19.9999 18.4384 19.9999H17C15.8954 19.9999 15 19.1045 15 17.9999V15.9999C15 15.2043 14.6839 14.4412 14.1213 13.8786C13.5587 13.316 12.7956 12.9999 12 12.9999C11.2043 12.9999 10.4413 13.316 9.87864 13.8786C9.31603 14.4412 8.99996 15.2043 8.99996 15.9999V17.9999C8.99996 19.1045 8.10453 19.9999 6.99996 19.9999H5.56152C4.64378 19.9999 3.85061 19.3725 3.72745 18.4631C3.61039 17.5987 3.49997 16.4097 3.49997 14.9999C3.49997 11.9999 3.33157 10.1683 6.49996 6.99991Z" stroke="#E0E0E0" stroke-width="1.5" stroke-linecap="round" stroke-linejoin="round"/>
</svg>
