<svg width="50" height="50" viewBox="0 0 50 50" fill="none" xmlns="http://www.w3.org/2000/svg">
<rect width="49.8571" height="50" rx="14" fill="#36789D"/>
<path d="M21.9286 10H36.9286C37.7242 10 38.4873 10.3161 39.0499 10.8787C39.6125 11.4413 39.9286 12.2044 39.9286 13V20.5H18.9286V13C18.9286 12.2044 19.2447 11.4413 19.8073 10.8787C20.3699 10.3161 21.1329 10 21.9286 10ZM39.9286 35.5C39.9286 36.2956 39.6125 37.0587 39.0499 37.6213C38.4873 38.1839 37.7242 38.5 36.9286 38.5V40H33.9286V38.5H24.9286V40H21.9286V38.5C21.1329 38.5 20.3699 38.1839 19.8073 37.6213C19.2447 37.0587 18.9286 36.2956 18.9286 35.5V22H39.9286V35.5ZM23.4286 14.5V17.5H26.4286V14.5H23.4286ZM23.4286 25V29.5H26.4286V25H23.4286Z" fill="white"/>
<path d="M8.46453 19.123C8.11345 18.5529 7.92861 17.9062 7.92859 17.2479C7.92861 16.5895 8.11345 15.9428 8.46453 15.3727C8.81561 14.8026 9.32056 14.3292 9.92863 14L9.92863 17.2479L13.9287 17.2479L13.9287 14C14.5368 14.3292 15.0417 14.8026 15.3927 15.3727C15.7438 15.9429 15.9286 16.5896 15.9286 17.2479C15.9286 17.9062 15.7438 18.5529 15.3927 19.123C15.0417 19.6931 14.5368 20.1666 13.9287 20.4957L13.9287 34.1248C13.9287 34.6221 13.718 35.0991 13.3429 35.4508C12.9678 35.8024 12.4591 36 11.9287 36C11.3982 36 10.8895 35.8024 10.5144 35.4508C10.1394 35.0991 9.92863 34.6221 9.92863 34.1248L9.92863 20.4957C9.32056 20.1666 8.81561 19.6931 8.46453 19.123Z" fill="white"/>
</svg>
