<svg width="20" height="20" viewBox="0 0 20 20" fill="none" xmlns="http://www.w3.org/2000/svg">
<path d="M18.8861 1.11999C18.5306 0.764465 18.1086 0.482448 17.6441 0.290038C17.1797 0.0976286 16.6818 -0.00140381 16.1791 -0.00140381C15.6763 -0.00140381 15.1785 0.0976286 14.714 0.290038C14.2496 0.482448 13.8276 0.764465 13.4721 1.11999L12.3721 2.22199C12.317 2.2659 12.2667 2.31551 12.2221 2.36999L1.30208 13.292C1.16246 13.4313 1.06713 13.6087 1.02808 13.802L0.0200845 18.802C-0.0128006 18.9636 -0.00521088 19.1308 0.0421778 19.2888C0.0895665 19.4467 0.175283 19.5905 0.291694 19.7073C0.408104 19.8241 0.551596 19.9103 0.709388 19.9582C0.867181 20.0062 1.03438 20.0143 1.19608 19.982L6.20408 18.982C6.39738 18.9429 6.57482 18.8476 6.71408 18.708L18.8861 6.53599C19.2416 6.18052 19.5236 5.7585 19.716 5.29403C19.9084 4.82956 20.0075 4.33173 20.0075 3.82899C20.0075 3.32624 19.9084 2.82842 19.716 2.36395C19.5236 1.89948 19.2416 1.47746 18.8861 1.12199M13.0041 4.41999L15.5901 7.00599L5.51408 17.08L2.27808 17.728L2.92808 14.496L13.0041 4.41999ZM17.0041 5.59199L14.4181 3.00399L14.8861 2.53599C15.055 2.36287 15.2566 2.22499 15.4792 2.13036C15.7018 2.03572 15.941 1.9862 16.1829 1.98467C16.4247 1.98314 16.6645 2.02963 16.8883 2.12145C17.1121 2.21326 17.3154 2.34857 17.4865 2.51954C17.6576 2.69051 17.7931 2.89374 17.8851 3.11745C17.9771 3.34116 18.0237 3.5809 18.0224 3.82278C18.0211 4.06466 17.9717 4.30387 17.8773 4.52654C17.7828 4.74921 17.6451 4.95093 17.4721 5.11999L17.0041 5.59199Z" fill="#9E9D9D"/>
</svg>
